<svg xmlns="http://www.w3.org/2000/svg" viewBox="0 0 489.14 313.18"><defs><style>.cls-1{fill:#095354;}.cls-2{fill:#ed5f61;}</style></defs><title>logo-ibg</title><g id="Layer_2" data-name="Layer 2"><g id="logo"><path class="cls-1" d="M209.76,55.81l8.63-10.27s-.12,1.41,1.64.82l1.7,57.27a32.11,32.11,0,0,1-16.25,28.82l-.53-1.64s8.33-3.17,7.27-33.87Z"/><path class="cls-1" d="M120.56,10.27,129.19,0s-.12,1.41,1.64.82l1.7,57.28a32.09,32.09,0,0,1-16.25,28.81l-.53-1.64s8.33-3.17,7.28-33.86Z"/><path class="cls-1" d="M143.87,118.72s-6.45,26.41-30.63,20.07l-1.88,3.87s33.22,24.18,39.44-19.83l33.33.94s8-.77,7.86,7.8c0,0,7.16-18.31-3.81-22.3h-29S149,110.89,142.7,94.74h-1.64s-5,9.82-5.25,10.64C135.81,105.38,142.93,118.48,143.87,118.72Z"/><polyline class="cls-1" points="160.69 144.31 167.66 135.78 177.83 144.93 170.71 153.62 160.69 144.7"/><polyline class="cls-1" points="267.85 303.87 274.81 295.34 284.99 304.5 277.87 313.18 267.85 304.26"/><polygon class="cls-1" points="177.83 143.05 184.95 134.68 194.89 143.91 188.16 152.52 177.83 143.05"/><polygon class="cls-1" points="66.53 82.66 72.86 73.97 82.96 82.07 76.86 90.64 66.53 82.66"/><path class="cls-1" d="M90.2,78.86l7-14.09s16.74,38,3.28,55.56S33.87,139.58,57.19,85.59l4.38,1.87s-15,30.68,15,29.42S99,99.83,90.2,78.86Z"/><path class="cls-1" d="M37.3,140.45c.77-.64,3.68-2.89,6.64-2.09,3.66,1,4.8,6,5.41,8.66,1.76,7.75-1.29,14.63-3.13,18H44s-3.75-22.22-11.42-7c0,0-13.77,10.48-20.5,11.58l-1.41,1.88s-.62,5,21.6,6.1l75.9-2.19v1.72L95.82,189.28l-60.4,2.81S-6.36,194,.83,175.66c0,0,1.57-9.23,13.46-18,0,0,13.77-6.16,16.43-8.48S37.3,140.45,37.3,140.45Z"/><path class="cls-1" d="M217.3,193.2c-19.72-25.58-29.11,5.87-29.11,5.87l.71,9.16c-12.68,16-2.35,36.77-2.35,36.77-11.19-37.71,32.63-24.41,32.63-24.41C230.91,206.66,217.3,193.2,217.3,193.2ZM212.41,207c-2.58-2.82-18.12-1.41-18.12-1.41,2.76-1.64,1.93-8.22,1.93-8.22C207.25,193.83,215,209.8,212.41,207Z"/><path class="cls-1" d="M273.51,271.33H243.28c-1.05-10.55-5.63-16.73-5.63-16.73-4.69-6.92-10.56-10.68-21-2.34s-6.1,21.71-6.1,21.71c3.87,15,24.18,11.5,24.18,11.5-15.85,24.53-35.1,14.79-35.1,14.79l-1.52,4,10.44,5.63c26.29,11.86,34.16-24.41,34.16-24.41s18.7.16,27.77.16,8.7,8.19,8.7,8.19l.07-.21C286.2,271.23,273.51,271.33,273.51,271.33Zm-56.64-8.68c11.19-11.89,19,8.25,19,8.25C210.52,270.81,216.87,262.65,216.87,262.65Z"/><path class="cls-1" d="M82.58,285.18l-.29-.19a4.92,4.92,0,0,0,.45.28c2.51,1.38,6.67.89,6.67.89l87.6-4.57c15.61-31.8-15.71-33.83-15.71-33.83l-12.34.38-34.66,1.79c-20.43.94-11.27-7.74-11.27-7.74,17.84-15,22.53-6.81,22.53-6.81s7.1-6.65,4.23-13.53c-5.07-12.15-27.11,8.84-27.11,8.84-4.11,2.81-8.81,13.49-8.81,13.49-9.27,22.66,20.78,19.25,20.78,19.25s26.29-1.64,40.14-2,15.84,7.39,15.84,7.39S104,271.14,91.14,271.3s-17.3-14.4-17.3-14.4H72.59l-5,10.72c-.47,3.36,7.83,13.93,7.83,13.93C65.16,308.93,44.81,301,44.81,301l-2,4.07a40.4,40.4,0,0,0,15.49,6.49c21,3.13,23.94-26.52,23.94-26.52"/><path class="cls-1" d="M100,228.57s21.94-28.81,27.78-12.91C127.79,215.66,120.46,208.78,100,228.57Z"/><path class="cls-1" d="M39.59,203.25s35,18.55,20.89,45.54c0,0-3,6.57-13.85,6.34s-15.49-.47-19.48,5.16c0,0,1.17-19.71,12.2-17.6,0,0,14.32.23,17.14-3.76S44.05,219.55,35.6,217.62C35.6,217.62,32.09,215.41,39.59,203.25Z"/><path class="cls-2" d="M485.36,53.69a44.06,44.06,0,0,1-6.87-.67c-2.09-.41-3.93-2.23-6.06-4.34-5.51-5.44-13.06-12.89-31.48-1.84l-.54.32-.37-.51C419.22,18,387.1,1.39,353.85,1.39a99.08,99.08,0,0,0-13.62.94c-.51.07-12.62,1.8-28,8.88-19.57,9.05-34.85,22.22-45.41,39.16C253.68,71.5,252,92.23,251.47,99c-1.34,16.62,1.23,33.49,8.1,53.08,21.19,60.49,82.14,143.2,95.6,161.06a889,889,0,0,0,53-75.71c15.41-24.81,27.55-47.63,36.09-67.82,10.64-25.19,15.66-46.32,14.91-62.81v-.28l.17-.2c.15-.16,14-16.4,15.83-23.2S481.82,60,487.6,55.56a5.9,5.9,0,0,0,1.54-1.47A16.67,16.67,0,0,0,485.36,53.69ZM425,184.1c-1.84,3.78-45.18,92.85-69,112.67l-.54.44-.44-.54c-.61-.75-60.77-75.27-75.69-125.52-22.16-48.28-19.6-70.31-13.17-98.42,2.73-12,12.34-22.19,27.79-29.57a102.14,102.14,0,0,1,22.63-7.58c15-4.34,40.55-3.43,58.38,6.82,9.35,5.38,15.22,12.57,17.41,21.36a14.12,14.12,0,0,1-2.29,11.85c-14.72,21.49-86.37,30.45-117,34.27-1.11.14-11.29.82-12.29,1,16.14,1,62.63,3.49,68.33,10.08a1.94,1.94,0,0,1,.43,1.5c-.5,6.13-36.75,36.24-51,48.63,8.45-5.61,32.95-21.74,46.14-28.61,32.11-16.7,53.4-20.17,63.28-10.29l.8.78c2.52,2.4,7.75,7.4,10.16,14.33,3,8.62.64,17.31-7,25.81-20.89,23.24-44.1,28.35-59.89,28.55a82.61,82.61,0,0,1-22-2.73c31.11,15.32,59.31,11.17,78,4.62a115.9,115.9,0,0,0,35.87-20.22l2.63-2.36Z"/></g></g></svg>